<svg xmlns="http://www.w3.org/2000/svg" fill="none" viewBox="0 0 600 600"><path fill="#000" d="M545.5 27.3H436.4v109h109z"/><path fill="#F7D046" d="M600 27.3H491v109h109z"/><path fill="#000" d="M109 27.3H0v109h109zm0 109.1H0v109h109zm0 109.1H0v109h109zm0 109H0v109.1h109zm0 109.1H0v109.1h109z"/><path fill="#F7D046" d="M163.6 27.3h-109v109h109z"/><path fill="#F2A73B" d="M600 136.4H491v109h109zm-436.4 0h-109v109h109z"/><path fill="#000" d="M436.4 136.4H327.3v109h109z"/><path fill="#F2A73B" d="M491 136.4H381.7v109H491zm-218.3 0h-109v109h109z"/><path fill="#EE792F" d="M381.8 245.5h-109v109h109z"/><path fill="#EE792F" d="M491 245.5H381.7v109H491zm-218.3 0h-109v109h109z"/><path fill="#000" d="M327.3 354.5H218.2v109.1h109z"/><path fill="#EB5829" d="M381.8 354.5h-109v109.1h109z"/><path fill="#EE792F" d="M600 245.5H491v109h109zm-436.4 0h-109v109h109z"/><path fill="#000" d="M545.5 354.5H436.4v109.1h109z"/><path fill="#EB5829" d="M600 354.5H491v109.1h109z"/><path fill="#000" d="M545.5 463.6H436.4v109.1h109z"/><path fill="#EB5829" d="M163.6 354.5h-109v109.1h109z"/><path fill="#EA3326" d="M600 463.6H491v109.1h109zm-436.4 0h-109v109.1h109z"/></svg>